<svg xmlns="http://www.w3.org/2000/svg" viewBox="0 0 465 465" width="512" height="512"><g fill="#FFF"><path d="M385.968 275.332c-3.287-22.721-22.883-40.236-46.5-40.236-25.912 0-46.993 21.081-46.993 46.993v124.887c0 25.911 21.081 46.992 46.993 46.992 23.617 0 43.213-17.515 46.5-40.235 15.11-3.231 26.477-16.682 26.477-32.742v-72.917c0-16.06-11.367-29.511-26.477-32.742zm11.477 105.658c0 7.521-4.522 13.996-10.984 16.88v-65.781c0-4.143-3.357-7.5-7.5-7.5s-7.5 3.357-7.5 7.5v74.887c0 17.641-14.353 31.992-31.993 31.992s-31.993-14.352-31.993-31.992V282.089c0-17.641 14.353-31.993 31.993-31.993s31.993 14.353 31.993 31.993v20c0 4.143 3.357 7.5 7.5 7.5s7.5-3.357 7.5-7.5v-10.895c6.462 2.883 10.984 9.357 10.984 16.879v72.917zM125.532 235.096c-23.617 0-43.214 17.516-46.5 40.236-15.11 3.231-26.477 16.682-26.477 32.741v72.917c0 16.061 11.367 29.511 26.477 32.742 3.287 22.721 22.883 40.235 46.5 40.235 25.912 0 46.993-21.081 46.993-46.992V282.089c0-25.912-21.081-46.993-46.993-46.993zm31.993 171.88c0 17.641-14.353 31.992-31.993 31.992s-31.993-14.352-31.993-31.992v-74.887c0-4.143-3.357-7.5-7.5-7.5s-7.5 3.357-7.5 7.5v65.781c-6.462-2.884-10.984-9.358-10.984-16.88v-72.917c0-7.521 4.522-13.996 10.984-16.879v10.895c0 4.143 3.357 7.5 7.5 7.5s7.5-3.357 7.5-7.5v-20c0-17.641 14.353-31.993 31.993-31.993s31.993 14.353 31.993 31.993v124.887z"/><path d="M396.903 79.129c-43.915-43.913-102.3-68.097-164.403-68.097S112.012 35.216 68.097 79.129C24.184 123.042 0 181.429 0 243.532c0 4.143 3.357 7.5 7.5 7.5h5.173a7.502 7.502 0 1 0 2.439-14.594c1.766-55.437 24.188-107.3 63.592-146.702 41.08-41.08 95.7-63.704 153.796-63.704s112.716 22.624 153.796 63.704c39.403 39.402 61.826 91.266 63.592 146.702a7.504 7.504 0 0 0-5.06 7.094c0 4.143 3.357 7.5 7.5 7.5h5.172c4.143 0 7.5-3.357 7.5-7.5 0-62.103-24.184-120.49-68.097-164.403z"/><path d="M232.5 36.204c-114.32 0-207.327 93.007-207.327 207.328 0 16.029 1.838 31.991 5.464 47.46v53.54c0 4.143 3.357 7.5 7.5 7.5s7.5-3.357 7.5-7.5v-54.416c0-.587-.069-1.173-.205-1.743-3.489-14.599-5.259-29.685-5.259-44.841 0-106.05 86.277-192.328 192.327-192.328s192.327 86.278 192.327 192.328c0 15.156-1.77 30.242-5.259 44.841a7.517 7.517 0 0 0-.205 1.743v54.416c0 4.143 3.357 7.5 7.5 7.5s7.5-3.357 7.5-7.5v-53.54c3.626-15.469 5.464-31.431 5.464-47.46 0-114.321-93.007-207.328-207.327-207.328z"/></g></svg>